<svg xmlns="http://www.w3.org/2000/svg" width="640" height="440" viewBox="0 0 640 440">
<title>Learn to explore</title>
<desc>Explore three shapes. Move onto a shape and pause to hear its name. Use Next object or the list for the same action. Use Stop speech or Back at any time.</desc>
<rect width="640" height="440" fill="#f4f5ef"/>
<defs><marker id="arrow" markerWidth="8" markerHeight="8" refX="7" refY="4" orient="auto"><path d="M0 0 L8 4 L0 8 Z" fill="#24544c"/></marker></defs>
<text x="32" y="35" font-size="23" fill="#183b34">Learn to explore</text>
<polygon id="circle" points="190.0,245.0 189.63885450041477,252.35128552471704 188.5588960302423,259.63177415120964 186.77052517991567,266.7713507940847 184.29096493834652,273.70125742738173 181.14409482612663,280.35475526194983 177.3602209226909,286.66776747647015 172.97578400220527,292.5794963122734 168.03300858899107,298.03300858899104 162.57949631227342,302.9757840022053 156.66776747647017,307.36022092269087 150.35475526194983,311.1440948261266 143.70125742738173,314.2909649383465 136.77135079408467,316.7705251799157 129.6317741512096,318.5588960302423 122.35128552471706,319.63885450041477 115.0,320.0 107.64871447528296,319.63885450041477 100.36822584879039,318.5588960302423 93.22864920591533,316.7705251799157 86.29874257261827,314.2909649383465 79.64524473805017,311.14409482612666 73.33223252352985,307.3602209226909 67.4205036877266,302.9757840022053 61.96699141100894,298.03300858899104 57.02421599779473,292.5794963122734 52.6397790773091,286.66776747647015 48.85590517387338,280.35475526194983 45.709035061653495,273.70125742738173 43.229474820084334,266.7713507940847 41.44110396975772,259.63177415120964 40.361145499585234,252.35128552471707 40.0,245.0 40.361145499585234,237.64871447528296 41.44110396975772,230.36822584879036 43.229474820084334,223.22864920591533 45.70903506165348,216.29874257261827 48.85590517387337,209.64524473805017 52.63977907730909,203.33223252352985 57.02421599779472,197.4205036877266 61.96699141100893,191.96699141100893 67.42050368772655,187.02421599779476 73.33223252352984,182.6397790773091 79.64524473805017,178.8559051738734 86.29874257261822,175.7090350616535 93.22864920591532,173.22947482008433 100.36822584879035,171.4411039697577 107.64871447528297,170.36114549958523 114.99999999999999,170.0 122.35128552471701,170.36114549958523 129.6317741512096,171.4411039697577 136.77135079408464,173.22947482008433 143.70125742738176,175.7090350616535 150.35475526194983,178.85590517387337 156.66776747647015,182.6397790773091 162.57949631227342,187.02421599779473 168.03300858899104,191.96699141100893 172.97578400220524,197.42050368772655 177.3602209226909,203.33223252352985 181.1440948261266,209.64524473805017 184.2909649383465,216.2987425726182 186.77052517991567,223.2286492059153 188.5588960302423,230.36822584879036 189.63885450041477,237.64871447528296" fill="#d7e9c7" stroke="#24544c" stroke-width="2"><title>Circle</title><desc>A round shape on the left.</desc></polygon>
<text x="115.0" y="251.0" text-anchor="middle" font-size="19" fill="#183b34">Circle</text>
<polygon id="square" points="245,170 395,170 395,320 245,320" fill="#d7e9c7" stroke="#24544c" stroke-width="2"><title>Square</title><desc>A four-sided shape in the centre.</desc></polygon>
<text x="320.0" y="251.0" text-anchor="middle" font-size="19" fill="#183b34">Square</text>
<polygon id="triangle" points="525,170 600,320 450,320" fill="#d7e9c7" stroke="#24544c" stroke-width="2"><title>Triangle</title><desc>A three-sided shape on the right.</desc></polygon>
<text x="525.0" y="251.0" text-anchor="middle" font-size="19" fill="#183b34">Triangle</text>
</svg>
